<?xml version="1.0" encoding="UTF-8" standalone="no"?>
<!DOCTYPE svg PUBLIC "-//W3C//DTD SVG 1.1//EN"
 "http://www.w3.org/Graphics/SVG/1.1/DTD/svg11.dtd">
<!-- Generated by graphviz version 2.40.1 (20161225.0304)
 -->
<!-- Title: G Pages: 1 -->
<svg width="507pt" height="410pt"
 viewBox="0.00 0.00 507.05 410.43" xmlns="http://www.w3.org/2000/svg" xmlns:xlink="http://www.w3.org/1999/xlink">
<g id="graph0" class="graph" transform="scale(1 1) rotate(0) translate(4 406.4264)">
<title>G</title><style>.edge>path:hover{stroke-width:8}</style>
<polygon fill="#ffffff" stroke="transparent" points="-4,4 -4,-406.4264 503.0507,-406.4264 503.0507,4 -4,4"/>
<!-- PyQt5 -->
<g id="node1" class="node">
<title>PyQt5</title><style>.edge>path:hover{stroke-width:8}</style>
<ellipse fill="#ce3b3b" stroke="#000000" cx="131.5044" cy="-306" rx="27" ry="18"/>
<text text-anchor="middle" x="131.5044" y="-303.5" font-family="Helvetica,sans-Serif" font-size="10.00" fill="#ffffff">PyQt5</text>
</g>
<!-- annotation -->
<g id="node5" class="node">
<title>annotation</title><style>.edge>path:hover{stroke-width:8}</style>
<ellipse fill="#735926" stroke="#000000" cx="345.5044" cy="-90" rx="36.4942" ry="18"/>
<text text-anchor="middle" x="345.5044" y="-87.5" font-family="Helvetica,sans-Serif" font-size="10.00" fill="#ffffff">annotation</text>
</g>
<!-- PyQt5&#45;&gt;annotation -->
<g id="edge1" class="edge">
<title>PyQt5&#45;&gt;annotation</title><style>.edge>path:hover{stroke-width:8}</style>
<path fill="none" stroke="#000000" d="M114.5044,-234C106.9651,-194.4438 152.978,-198.7207 169.5044,-162"/>
</g>
<!-- init -->
<g id="node6" class="node">
<title>init</title><style>.edge>path:hover{stroke-width:8}</style>
<ellipse fill="#748f3d" stroke="#000000" cx="345.5044" cy="-18" rx="27" ry="18"/>
<text text-anchor="middle" x="345.5044" y="-15.5" font-family="Helvetica,sans-Serif" font-size="10.00" fill="#ffffff">init</text>
</g>
<!-- PyQt5&#45;&gt;init -->
<g id="edge2" class="edge">
<title>PyQt5&#45;&gt;init</title><style>.edge>path:hover{stroke-width:8}</style>
<path fill="none" stroke="#000000" d="M126.8056,-288.0436C123.1199,-273.5338 118.0393,-252.5464 114.5044,-234"/>
<path fill="none" stroke="#000000" d="M114.5044,-234C105.7929,-188.2939 30.9354,-207.9091 38.5044,-162"/>
</g>
<!-- user_widgets -->
<g id="node12" class="node">
<title>user_widgets</title><style>.edge>path:hover{stroke-width:8}</style>
<ellipse fill="#a3287a" stroke="#000000" cx="186.5044" cy="-234" rx="43.6222" ry="18"/>
<text text-anchor="middle" x="186.5044" y="-231.5" font-family="Helvetica,sans-Serif" font-size="10.00" fill="#ffffff">user_widgets</text>
</g>
<!-- PyQt5&#45;&gt;user_widgets -->
<g id="edge3" class="edge">
<title>PyQt5&#45;&gt;user_widgets</title><style>.edge>path:hover{stroke-width:8}</style>
<path fill="none" stroke="#000000" d="M143.9847,-289.6621C150.8187,-280.7157 159.4379,-269.4325 167.1265,-259.3674"/>
<polygon fill="#ce3b3b" stroke="#000000" points="170.0174,-261.3487 173.3065,-251.2773 164.4547,-257.0993 170.0174,-261.3487"/>
</g>
<!-- PyQt5_QtCore -->
<g id="node2" class="node">
<title>PyQt5_QtCore</title><style>.edge>path:hover{stroke-width:8}</style>
<ellipse fill="#ce3b3b" stroke="#000000" cx="46.5044" cy="-381.2132" rx="46.5087" ry="18"/>
<text text-anchor="middle" x="46.5044" y="-378.7132" font-family="Helvetica,sans-Serif" font-size="10.00" fill="#ffffff">PyQt5.QtCore</text>
</g>
<!-- PyQt5_QtCore&#45;&gt;annotation -->
<g id="edge4" class="edge">
<title>PyQt5_QtCore&#45;&gt;annotation</title><style>.edge>path:hover{stroke-width:8}</style>
<path fill="none" stroke="#000000" d="M38.5044,-234C46.9442,-168.9403 96.9037,-173.4951 155.5044,-144 202.4214,-120.3856 261.2116,-105.698 300.8723,-97.7086"/>
<polygon fill="#ce3b3b" stroke="#000000" points="301.6315,-101.1266 310.7743,-95.773 300.2885,-94.2566 301.6315,-101.1266"/>
</g>
<!-- PyQt5_QtCore&#45;&gt;init -->
<g id="edge5" class="edge">
<title>PyQt5_QtCore&#45;&gt;init</title><style>.edge>path:hover{stroke-width:8}</style>
<path fill="none" stroke="#000000" d="M42.2068,-363.2271C36.2403,-335.1733 27.3664,-279.4964 38.5044,-234"/>
<path fill="none" stroke="#000000" d="M38.5044,-234C46.973,-203.1409 33.2989,-193.5738 38.5044,-162"/>
<path fill="none" stroke="#000000" d="M38.5044,-162C46.0733,-116.0909 79.1409,-120.2384 114.5044,-90"/>
<path fill="none" stroke="#000000" d="M114.5044,-90C170.6899,-41.9572 258.7898,-25.9422 308.3751,-20.6244"/>
<polygon fill="#ce3b3b" stroke="#000000" points="308.7365,-24.1058 318.3461,-19.6443 308.0517,-17.1394 308.7365,-24.1058"/>
</g>
<!-- PyQt5_QtCore&#45;&gt;user_widgets -->
<g id="edge6" class="edge">
<title>PyQt5_QtCore&#45;&gt;user_widgets</title><style>.edge>path:hover{stroke-width:8}</style>
<path fill="none" stroke="#000000" d="M81.6148,-369.2137C121.4475,-354.5708 181.5632,-328.926 186.5044,-306"/>
<path fill="none" stroke="#000000" d="M186.5044,-306C189.5591,-291.8264 189.8457,-275.7156 189.2455,-262.3327"/>
<polygon fill="#ce3b3b" stroke="#000000" points="192.7336,-262.0333 188.6099,-252.274 185.7475,-262.4748 192.7336,-262.0333"/>
</g>
<!-- PyQt5_QtGui -->
<g id="node3" class="node">
<title>PyQt5_QtGui</title><style>.edge>path:hover{stroke-width:8}</style>
<ellipse fill="#c24747" stroke="#000000" cx="161.5044" cy="-381.2132" rx="42.9448" ry="18"/>
<text text-anchor="middle" x="161.5044" y="-378.7132" font-family="Helvetica,sans-Serif" font-size="10.00" fill="#ffffff">PyQt5.QtGui</text>
</g>
<!-- PyQt5_QtGui&#45;&gt;annotation -->
<g id="edge7" class="edge">
<title>PyQt5_QtGui&#45;&gt;annotation</title><style>.edge>path:hover{stroke-width:8}</style>
<path fill="none" stroke="#000000" d="M135.5655,-366.5374C120.8439,-356.6289 103.7548,-342.0709 95.5044,-324 88.8592,-309.4452 94.9498,-303.9904 95.5044,-288 96.6162,-255.9422 85.4635,-244.3322 100.5044,-216 118.764,-181.6048 153.5224,-197.5109 169.5044,-162"/>
<path fill="none" stroke="#000000" d="M169.5044,-162C180.3296,-136.2095 253.9327,-113.0163 302.4653,-100.2813"/>
<polygon fill="#c24747" stroke="#000000" points="303.5956,-103.6046 312.4094,-97.7253 301.8529,-96.825 303.5956,-103.6046"/>
</g>
<!-- PyQt5_QtGui&#45;&gt;user_widgets -->
<g id="edge8" class="edge">
<title>PyQt5_QtGui&#45;&gt;user_widgets</title><style>.edge>path:hover{stroke-width:8}</style>
<path fill="none" stroke="#000000" d="M168.6919,-363.2825C174.4244,-348.2336 182.1847,-326.0426 186.5044,-306"/>
</g>
<!-- PyQt5_QtWidgets -->
<g id="node4" class="node">
<title>PyQt5_QtWidgets</title><style>.edge>path:hover{stroke-width:8}</style>
<ellipse fill="#ce3b3b" stroke="#000000" cx="414.5044" cy="-381.2132" rx="44.5955" ry="21.4286"/>
<text text-anchor="middle" x="414.5044" y="-384.2132" font-family="Helvetica,sans-Serif" font-size="10.00" fill="#ffffff">PyQt5.</text>
<text text-anchor="middle" x="414.5044" y="-373.2132" font-family="Helvetica,sans-Serif" font-size="10.00" fill="#ffffff">QtWidgets</text>
</g>
<!-- PyQt5_QtWidgets&#45;&gt;annotation -->
<g id="edge9" class="edge">
<title>PyQt5_QtWidgets&#45;&gt;annotation</title><style>.edge>path:hover{stroke-width:8}</style>
<path fill="none" stroke="#000000" d="M431.2381,-361.2618C461.7087,-322.3771 520.4561,-233.9574 490.5044,-162"/>
<path fill="none" stroke="#000000" d="M490.5044,-162C473.2404,-123.5663 426.4754,-105.4556 390.679,-97.0454"/>
<polygon fill="#ce3b3b" stroke="#000000" points="391.4223,-93.6254 380.9071,-94.9218 389.9357,-100.4657 391.4223,-93.6254"/>
</g>
<!-- PyQt5_QtWidgets&#45;&gt;init -->
<g id="edge10" class="edge">
<title>PyQt5_QtWidgets&#45;&gt;init</title><style>.edge>path:hover{stroke-width:8}</style>
<path fill="none" stroke="#000000" d="M490.5044,-162C477.3924,-132.8096 495.6192,-121.5886 490.5044,-90"/>
</g>
<!-- PyQt5_QtWidgets&#45;&gt;user_widgets -->
<g id="edge11" class="edge">
<title>PyQt5_QtWidgets&#45;&gt;user_widgets</title><style>.edge>path:hover{stroke-width:8}</style>
<path fill="none" stroke="#000000" d="M389.6109,-363.5744C374.1422,-352.4618 353.9496,-337.678 336.5044,-324 316.8899,-308.6212 314.3227,-301.7051 293.5044,-288 272.2533,-274.01 246.8925,-261.0651 226.1959,-251.3584"/>
<polygon fill="#ce3b3b" stroke="#000000" points="227.5926,-248.1483 217.0464,-247.1343 224.6585,-254.5037 227.5926,-248.1483"/>
</g>
<!-- annotation&#45;&gt;init -->
<g id="edge12" class="edge">
<title>annotation&#45;&gt;init</title><style>.edge>path:hover{stroke-width:8}</style>
<path fill="none" stroke="#000000" d="M345.5044,-61.5726C345.5044,-56.6792 345.5044,-51.5904 345.5044,-46.6901"/>
<polygon fill="#735926" stroke="#000000" points="342.0045,-61.8313 345.5044,-71.8314 349.0045,-61.8314 342.0045,-61.8313"/>
<polygon fill="#735926" stroke="#000000" points="349.0045,-46.4132 345.5044,-36.4133 342.0045,-46.4133 349.0045,-46.4132"/>
</g>
<!-- numpy -->
<g id="node7" class="node">
<title>numpy</title><style>.edge>path:hover{stroke-width:8}</style>
<ellipse fill="#19e619" stroke="#000000" cx="249.5044" cy="-381.2132" rx="27.1572" ry="18"/>
<text text-anchor="middle" x="249.5044" y="-378.7132" font-family="Helvetica,sans-Serif" font-size="10.00" fill="#000000">numpy</text>
</g>
<!-- numpy&#45;&gt;annotation -->
<g id="edge14" class="edge">
<title>numpy&#45;&gt;annotation</title><style>.edge>path:hover{stroke-width:8}</style>
<path fill="none" stroke="#000000" d="M272.9229,-371.8443C297.6789,-360.4744 335.2176,-338.6741 350.5044,-306"/>
<path fill="none" stroke="#000000" d="M350.5044,-306C355.7137,-294.8656 339.2375,-295.5085 329.5044,-288 298.1142,-263.7842 284.2483,-264.1497 258.5044,-234"/>
</g>
<!-- pandas -->
<g id="node8" class="node">
<title>pandas</title><style>.edge>path:hover{stroke-width:8}</style>
<ellipse fill="#31c493" stroke="#000000" cx="434.5044" cy="-234" rx="28.0137" ry="18"/>
<text text-anchor="middle" x="434.5044" y="-231.5" font-family="Helvetica,sans-Serif" font-size="10.00" fill="#000000">pandas</text>
</g>
<!-- numpy&#45;&gt;pandas -->
<g id="edge15" class="edge">
<title>numpy&#45;&gt;pandas</title><style>.edge>path:hover{stroke-width:8}</style>
<path fill="none" stroke="#000000" d="M350.5044,-306C361.6065,-282.2701 384.7242,-263.3876 403.9019,-250.9234"/>
<polygon fill="#19e619" stroke="#000000" points="406.0033,-253.7385 412.6535,-245.4908 402.3115,-247.7912 406.0033,-253.7385"/>
</g>
<!-- pyqtgraph -->
<g id="node9" class="node">
<title>pyqtgraph</title><style>.edge>path:hover{stroke-width:8}</style>
<ellipse fill="#3193c4" stroke="#000000" cx="249.5044" cy="-306" rx="34.9638" ry="18"/>
<text text-anchor="middle" x="249.5044" y="-303.5" font-family="Helvetica,sans-Serif" font-size="10.00" fill="#ffffff">pyqtgraph</text>
</g>
<!-- numpy&#45;&gt;pyqtgraph -->
<g id="edge16" class="edge">
<title>numpy&#45;&gt;pyqtgraph</title><style>.edge>path:hover{stroke-width:8}</style>
<path fill="none" stroke="#000000" d="M249.5044,-363.0062C249.5044,-354.3219 249.5044,-343.737 249.5044,-334.0563"/>
<polygon fill="#19e619" stroke="#000000" points="253.0045,-334.0393 249.5044,-324.0393 246.0045,-334.0394 253.0045,-334.0393"/>
</g>
<!-- numpy&#45;&gt;user_widgets -->
<g id="edge17" class="edge">
<title>numpy&#45;&gt;user_widgets</title><style>.edge>path:hover{stroke-width:8}</style>
<path fill="none" stroke="#000000" d="M228.6627,-369.634C208.1294,-356.495 180.6189,-333.3077 186.5044,-306"/>
</g>
<!-- pandas&#45;&gt;annotation -->
<g id="edge18" class="edge">
<title>pandas&#45;&gt;annotation</title><style>.edge>path:hover{stroke-width:8}</style>
<path fill="none" stroke="#000000" d="M427.1215,-216.466C418.9762,-197.8637 404.9584,-167.9164 389.5044,-144 382.9719,-133.8905 374.8679,-123.4793 367.4019,-114.5292"/>
<polygon fill="#31c493" stroke="#000000" points="369.9391,-112.1105 360.788,-106.7711 364.6121,-116.6518 369.9391,-112.1105"/>
</g>
<!-- read_data -->
<g id="node10" class="node">
<title>read_data</title><style>.edge>path:hover{stroke-width:8}</style>
<ellipse fill="#3a3ab0" stroke="#000000" cx="345.5044" cy="-162" rx="34.9638" ry="18"/>
<text text-anchor="middle" x="345.5044" y="-159.5" font-family="Helvetica,sans-Serif" font-size="10.00" fill="#ffffff">read_data</text>
</g>
<!-- pandas&#45;&gt;read_data -->
<g id="edge19" class="edge">
<title>pandas&#45;&gt;read_data</title><style>.edge>path:hover{stroke-width:8}</style>
<path fill="none" stroke="#000000" d="M416.9208,-219.7751C404.2166,-209.4975 386.824,-195.4271 372.3837,-183.7451"/>
<polygon fill="#31c493" stroke="#000000" points="374.2562,-180.758 364.2804,-177.1896 369.8536,-186.2002 374.2562,-180.758"/>
</g>
<!-- pyqtgraph&#45;&gt;annotation -->
<g id="edge20" class="edge">
<title>pyqtgraph&#45;&gt;annotation</title><style>.edge>path:hover{stroke-width:8}</style>
<path fill="none" stroke="#000000" d="M258.3929,-288.4653C265.1319,-272.412 271.2654,-248.9448 258.5044,-234"/>
<path fill="none" stroke="#000000" d="M258.5044,-234C234.9794,-206.4491 169.4224,-162.1822 169.5044,-162"/>
</g>
<!-- pyqtgraph&#45;&gt;user_widgets -->
<g id="edge21" class="edge">
<title>pyqtgraph&#45;&gt;user_widgets</title><style>.edge>path:hover{stroke-width:8}</style>
<path fill="none" stroke="#000000" d="M234.8926,-289.3008C226.9764,-280.2537 217.0399,-268.8977 208.234,-258.8338"/>
<polygon fill="#3193c4" stroke="#000000" points="210.6935,-256.3297 201.4744,-251.1086 205.4255,-260.9392 210.6935,-256.3297"/>
</g>
<!-- read_data&#45;&gt;annotation -->
<g id="edge22" class="edge">
<title>read_data&#45;&gt;annotation</title><style>.edge>path:hover{stroke-width:8}</style>
<path fill="none" stroke="#000000" d="M345.5044,-143.8314C345.5044,-136.131 345.5044,-126.9743 345.5044,-118.4166"/>
<polygon fill="#3a3ab0" stroke="#000000" points="349.0045,-118.4132 345.5044,-108.4133 342.0045,-118.4133 349.0045,-118.4132"/>
</g>
<!-- read_data&#45;&gt;init -->
<g id="edge23" class="edge">
<title>read_data&#45;&gt;init</title><style>.edge>path:hover{stroke-width:8}</style>
<path fill="none" stroke="#000000" d="M380.2946,-159.7337C425.6864,-154.8162 498.4785,-139.2472 490.5044,-90"/>
<path fill="none" stroke="#000000" d="M490.5044,-90C482.9622,-43.4203 422.951,-26.9692 382.5333,-21.1628"/>
<polygon fill="#3a3ab0" stroke="#000000" points="382.8346,-17.6729 372.4713,-19.8756 381.9463,-24.6163 382.8346,-17.6729"/>
</g>
<!-- transform_coord -->
<g id="node11" class="node">
<title>transform_coord</title><style>.edge>path:hover{stroke-width:8}</style>
<ellipse fill="#9947c2" stroke="#000000" cx="337.5044" cy="-234" rx="51.4282" ry="18"/>
<text text-anchor="middle" x="337.5044" y="-231.5" font-family="Helvetica,sans-Serif" font-size="10.00" fill="#ffffff">transform_coord</text>
</g>
<!-- transform_coord&#45;&gt;annotation -->
<g id="edge24" class="edge">
<title>transform_coord&#45;&gt;annotation</title><style>.edge>path:hover{stroke-width:8}</style>
<path fill="none" stroke="#000000" d="M299.4691,-221.8916C248.1349,-204.9911 163.6765,-174.9492 169.5044,-162"/>
</g>
<!-- transform_coord&#45;&gt;read_data -->
<g id="edge25" class="edge">
<title>transform_coord&#45;&gt;read_data</title><style>.edge>path:hover{stroke-width:8}</style>
<path fill="none" stroke="#000000" d="M339.5231,-215.8314C340.3787,-208.131 341.3961,-198.9743 342.347,-190.4166"/>
<polygon fill="#9947c2" stroke="#000000" points="345.8326,-190.7386 343.4585,-180.4133 338.8755,-189.9656 345.8326,-190.7386"/>
</g>
<!-- user_widgets&#45;&gt;annotation -->
<g id="edge26" class="edge">
<title>user_widgets&#45;&gt;annotation</title><style>.edge>path:hover{stroke-width:8}</style>
<path fill="none" stroke="#000000" d="M176.1074,-216.226C168.7931,-201.268 161.5976,-179.5683 169.5044,-162"/>
</g>
<!-- user_widgets&#45;&gt;init -->
<g id="edge27" class="edge">
<title>user_widgets&#45;&gt;init</title><style>.edge>path:hover{stroke-width:8}</style>
<path fill="none" stroke="#000000" d="M167.2578,-217.7001C134.0546,-187.8234 73.3477,-124.2221 114.5044,-90"/>
</g>
<!-- user_widgets&#45;&gt;read_data -->
<g id="edge28" class="edge">
<title>user_widgets&#45;&gt;read_data</title><style>.edge>path:hover{stroke-width:8}</style>
<path fill="none" stroke="#000000" d="M216.0384,-220.6261C242.665,-208.5688 281.8672,-190.8168 310.1521,-178.0086"/>
<polygon fill="#a3287a" stroke="#000000" points="311.6262,-181.1833 319.2919,-173.8698 308.7386,-174.8066 311.6262,-181.1833"/>
</g>
</g>
</svg>
