<?xml version="1.0" encoding="UTF-8" standalone="no"?>
<!DOCTYPE svg PUBLIC "-//W3C//DTD SVG 1.1//EN"
 "http://www.w3.org/Graphics/SVG/1.1/DTD/svg11.dtd">
<!-- Generated by graphviz version 2.40.1 (20161225.0304)
 -->
<!-- Title: G Pages: 1 -->
<svg width="272pt" height="410pt"
 viewBox="0.00 0.00 272.24 410.43" xmlns="http://www.w3.org/2000/svg" xmlns:xlink="http://www.w3.org/1999/xlink">
<g id="graph0" class="graph" transform="scale(1 1) rotate(0) translate(4 406.4264)">
<title>G</title><style>.edge>path:hover{stroke-width:8}</style>
<polygon fill="#ffffff" stroke="transparent" points="-4,4 -4,-406.4264 268.2364,-406.4264 268.2364,4 -4,4"/>
<!-- PyQt5 -->
<g id="node1" class="node">
<title>PyQt5</title><style>.edge>path:hover{stroke-width:8}</style>
<ellipse fill="#ce3b3b" stroke="#000000" cx="55.6886" cy="-306" rx="27" ry="18"/>
<text text-anchor="middle" x="55.6886" y="-303.5" font-family="Helvetica,sans-Serif" font-size="10.00" fill="#ffffff">PyQt5</text>
</g>
<!-- annotation -->
<g id="node4" class="node">
<title>annotation</title><style>.edge>path:hover{stroke-width:8}</style>
<ellipse fill="#7e8f3d" stroke="#000000" cx="118.6886" cy="-90" rx="36.4942" ry="18"/>
<text text-anchor="middle" x="118.6886" y="-87.5" font-family="Helvetica,sans-Serif" font-size="10.00" fill="#000000">annotation</text>
</g>
<!-- PyQt5&#45;&gt;annotation -->
<g id="edge1" class="edge">
<title>PyQt5&#45;&gt;annotation</title><style>.edge>path:hover{stroke-width:8}</style>
<path fill="none" stroke="#000000" d="M53.8757,-287.7845C52.85,-273.1282 52.3552,-252.0701 55.6886,-234"/>
</g>
<!-- init -->
<g id="node5" class="node">
<title>init</title><style>.edge>path:hover{stroke-width:8}</style>
<ellipse fill="#33995c" stroke="#000000" cx="118.6886" cy="-18" rx="27" ry="18"/>
<text text-anchor="middle" x="118.6886" y="-15.5" font-family="Helvetica,sans-Serif" font-size="10.00" fill="#ffffff">init</text>
</g>
<!-- PyQt5&#45;&gt;init -->
<g id="edge2" class="edge">
<title>PyQt5&#45;&gt;init</title><style>.edge>path:hover{stroke-width:8}</style>
<path fill="none" stroke="#000000" d="M42.3277,-290.066C32.005,-276.2305 19.2224,-255.1456 17.6886,-234"/>
</g>
<!-- user_widgets -->
<g id="node7" class="node">
<title>user_widgets</title><style>.edge>path:hover{stroke-width:8}</style>
<ellipse fill="#a02fbc" stroke="#000000" cx="127.6886" cy="-234" rx="43.6222" ry="18"/>
<text text-anchor="middle" x="127.6886" y="-231.5" font-family="Helvetica,sans-Serif" font-size="10.00" fill="#ffffff">user_widgets</text>
</g>
<!-- PyQt5&#45;&gt;user_widgets -->
<g id="edge3" class="edge">
<title>PyQt5&#45;&gt;user_widgets</title><style>.edge>path:hover{stroke-width:8}</style>
<path fill="none" stroke="#000000" d="M70.958,-290.7307C80.4832,-281.2055 92.9455,-268.7431 103.7629,-257.9257"/>
<polygon fill="#ce3b3b" stroke="#000000" points="106.3365,-260.3019 110.9327,-250.7559 101.3868,-255.3521 106.3365,-260.3019"/>
</g>
<!-- PyQt5_QtCore -->
<g id="node2" class="node">
<title>PyQt5_QtCore</title><style>.edge>path:hover{stroke-width:8}</style>
<ellipse fill="#ce3b3b" stroke="#000000" cx="55.6886" cy="-381.2132" rx="46.5087" ry="18"/>
<text text-anchor="middle" x="55.6886" y="-378.7132" font-family="Helvetica,sans-Serif" font-size="10.00" fill="#ffffff">PyQt5.QtCore</text>
</g>
<!-- PyQt5_QtCore&#45;&gt;annotation -->
<g id="edge4" class="edge">
<title>PyQt5_QtCore&#45;&gt;annotation</title><style>.edge>path:hover{stroke-width:8}</style>
<path fill="none" stroke="#000000" d="M.6886,-306C-2.6849,-265.8733 48.3835,-273.6001 55.6886,-234"/>
<path fill="none" stroke="#000000" d="M55.6886,-234C61.4938,-202.531 51.6168,-193.7399 55.6886,-162"/>
<path fill="none" stroke="#000000" d="M55.6886,-162C58.3457,-141.2884 73.5866,-123.5551 88.4111,-110.8699"/>
<polygon fill="#ce3b3b" stroke="#000000" points="90.9171,-113.3463 96.5215,-104.3551 86.5333,-107.8889 90.9171,-113.3463"/>
</g>
<!-- PyQt5_QtCore&#45;&gt;init -->
<g id="edge5" class="edge">
<title>PyQt5_QtCore&#45;&gt;init</title><style>.edge>path:hover{stroke-width:8}</style>
<path fill="none" stroke="#000000" d="M35.3502,-364.806C20.5201,-350.9785 2.6808,-329.6961 .6886,-306"/>
<path fill="none" stroke="#000000" d="M.6886,-306C-2.0659,-273.2357 20.0673,-266.7937 17.6886,-234"/>
<path fill="none" stroke="#000000" d="M17.6886,-234C12.1775,-158.0192 33.45,-136.6862 73.6886,-72 80.4689,-61.1002 89.2747,-50.0408 97.2967,-40.7932"/>
<polygon fill="#ce3b3b" stroke="#000000" points="100.0375,-42.9783 104.0739,-33.1825 94.8097,-38.323 100.0375,-42.9783"/>
</g>
<!-- PyQt5_QtCore&#45;&gt;user_widgets -->
<g id="edge6" class="edge">
<title>PyQt5_QtCore&#45;&gt;user_widgets</title><style>.edge>path:hover{stroke-width:8}</style>
<path fill="none" stroke="#000000" d="M67.8968,-363.663C75.3066,-352.5836 84.6582,-337.8038 91.6886,-324 102.0157,-303.7236 111.4768,-279.7585 118.1056,-261.658"/>
<polygon fill="#ce3b3b" stroke="#000000" points="121.4851,-262.6034 121.5754,-252.0089 114.898,-260.2347 121.4851,-262.6034"/>
</g>
<!-- PyQt5_QtWidgets -->
<g id="node3" class="node">
<title>PyQt5_QtWidgets</title><style>.edge>path:hover{stroke-width:8}</style>
<ellipse fill="#ce3b3b" stroke="#000000" cx="219.6886" cy="-381.2132" rx="44.5955" ry="21.4286"/>
<text text-anchor="middle" x="219.6886" y="-384.2132" font-family="Helvetica,sans-Serif" font-size="10.00" fill="#ffffff">PyQt5.</text>
<text text-anchor="middle" x="219.6886" y="-373.2132" font-family="Helvetica,sans-Serif" font-size="10.00" fill="#ffffff">QtWidgets</text>
</g>
<!-- PyQt5_QtWidgets&#45;&gt;annotation -->
<g id="edge7" class="edge">
<title>PyQt5_QtWidgets&#45;&gt;annotation</title><style>.edge>path:hover{stroke-width:8}</style>
<path fill="none" stroke="#000000" d="M219.6886,-306C201.7399,-244.5684 238.958,-223.0303 219.6886,-162"/>
<path fill="none" stroke="#000000" d="M219.6886,-162C210.874,-134.0822 182.9365,-115.5106 158.6731,-104.2319"/>
<polygon fill="#ce3b3b" stroke="#000000" points="159.8233,-100.9151 149.2583,-100.1211 157.0222,-107.3302 159.8233,-100.9151"/>
</g>
<!-- PyQt5_QtWidgets&#45;&gt;init -->
<g id="edge8" class="edge">
<title>PyQt5_QtWidgets&#45;&gt;init</title><style>.edge>path:hover{stroke-width:8}</style>
<path fill="none" stroke="#000000" d="M219.6886,-162C210.054,-131.4849 225.9344,-121.3845 219.6886,-90"/>
</g>
<!-- PyQt5_QtWidgets&#45;&gt;user_widgets -->
<g id="edge9" class="edge">
<title>PyQt5_QtWidgets&#45;&gt;user_widgets</title><style>.edge>path:hover{stroke-width:8}</style>
<path fill="none" stroke="#000000" d="M222.8146,-360.0149C224.3277,-344.6945 224.8521,-323.6727 219.6886,-306"/>
<path fill="none" stroke="#000000" d="M219.6886,-306C212.4221,-281.1295 189.4977,-263.1512 168.3522,-251.3796"/>
<polygon fill="#ce3b3b" stroke="#000000" points="169.9315,-248.2558 159.4496,-246.7127 166.6814,-254.4556 169.9315,-248.2558"/>
</g>
<!-- annotation&#45;&gt;init -->
<g id="edge10" class="edge">
<title>annotation&#45;&gt;init</title><style>.edge>path:hover{stroke-width:8}</style>
<path fill="none" stroke="#000000" d="M118.6886,-61.5726C118.6886,-56.6792 118.6886,-51.5904 118.6886,-46.6901"/>
<polygon fill="#7e8f3d" stroke="#000000" points="115.1887,-61.8313 118.6886,-71.8314 122.1887,-61.8314 115.1887,-61.8313"/>
<polygon fill="#7e8f3d" stroke="#000000" points="122.1887,-46.4132 118.6886,-36.4133 115.1887,-46.4133 122.1887,-46.4132"/>
</g>
<!-- read_data -->
<g id="node6" class="node">
<title>read_data</title><style>.edge>path:hover{stroke-width:8}</style>
<ellipse fill="#4073c0" stroke="#000000" cx="118.6886" cy="-162" rx="34.9638" ry="18"/>
<text text-anchor="middle" x="118.6886" y="-159.5" font-family="Helvetica,sans-Serif" font-size="10.00" fill="#ffffff">read_data</text>
</g>
<!-- read_data&#45;&gt;annotation -->
<g id="edge12" class="edge">
<title>read_data&#45;&gt;annotation</title><style>.edge>path:hover{stroke-width:8}</style>
<path fill="none" stroke="#000000" d="M118.6886,-143.8314C118.6886,-136.131 118.6886,-126.9743 118.6886,-118.4166"/>
<polygon fill="#4073c0" stroke="#000000" points="122.1887,-118.4132 118.6886,-108.4133 115.1887,-118.4133 122.1887,-118.4132"/>
</g>
<!-- read_data&#45;&gt;init -->
<g id="edge13" class="edge">
<title>read_data&#45;&gt;init</title><style>.edge>path:hover{stroke-width:8}</style>
<path fill="none" stroke="#000000" d="M144.7634,-149.9708C175.8431,-134.7424 223.2036,-108.2923 219.6886,-90"/>
<path fill="none" stroke="#000000" d="M219.6886,-90C213.6086,-58.3585 180.1334,-39.1084 153.3634,-28.5738"/>
<polygon fill="#4073c0" stroke="#000000" points="154.4608,-25.2482 143.8673,-25.0802 152.0438,-31.8178 154.4608,-25.2482"/>
</g>
<!-- user_widgets&#45;&gt;annotation -->
<g id="edge14" class="edge">
<title>user_widgets&#45;&gt;annotation</title><style>.edge>path:hover{stroke-width:8}</style>
<path fill="none" stroke="#000000" d="M98.712,-220.4722C77.2776,-208.2301 52.337,-188.1256 55.6886,-162"/>
</g>
<!-- user_widgets&#45;&gt;init -->
<g id="edge15" class="edge">
<title>user_widgets&#45;&gt;init</title><style>.edge>path:hover{stroke-width:8}</style>
<path fill="none" stroke="#000000" d="M143.0713,-216.7441C170.6257,-184.9842 225.0628,-117.9684 219.6886,-90"/>
</g>
<!-- user_widgets&#45;&gt;read_data -->
<g id="edge16" class="edge">
<title>user_widgets&#45;&gt;read_data</title><style>.edge>path:hover{stroke-width:8}</style>
<path fill="none" stroke="#000000" d="M125.4176,-215.8314C124.455,-208.131 123.3104,-198.9743 122.2407,-190.4166"/>
<polygon fill="#a02fbc" stroke="#000000" points="125.7037,-189.9019 120.9903,-180.4133 118.7578,-190.7702 125.7037,-189.9019"/>
</g>
</g>
</svg>
