<?xml version="1.0" encoding="UTF-8" standalone="no"?>
<!DOCTYPE svg PUBLIC "-//W3C//DTD SVG 1.1//EN"
 "http://www.w3.org/Graphics/SVG/1.1/DTD/svg11.dtd">
<!-- Generated by graphviz version 2.40.1 (20161225.0304)
 -->
<!-- Title: G Pages: 1 -->
<svg width="108pt" height="266pt"
 viewBox="0.00 0.00 107.61 266.43" xmlns="http://www.w3.org/2000/svg" xmlns:xlink="http://www.w3.org/1999/xlink">
<g id="graph0" class="graph" transform="scale(1 1) rotate(0) translate(4 262.4264)">
<title>G</title><style>.edge>path:hover{stroke-width:8}</style>
<polygon fill="#ffffff" stroke="transparent" points="-4,4 -4,-262.4264 103.6095,-262.4264 103.6095,4 -4,4"/>
<!-- PyQt5 -->
<g id="node1" class="node">
<title>PyQt5</title><style>.edge>path:hover{stroke-width:8}</style>
<ellipse fill="#c24747" stroke="#000000" cx="44.5477" cy="-162" rx="27" ry="18"/>
<text text-anchor="middle" x="44.5477" y="-159.5" font-family="Helvetica,sans-Serif" font-size="10.00" fill="#ffffff">PyQt5</text>
</g>
<!-- init -->
<g id="node3" class="node">
<title>init</title><style>.edge>path:hover{stroke-width:8}</style>
<ellipse fill="#49ac49" stroke="#000000" cx="44.5477" cy="-90" rx="27" ry="18"/>
<text text-anchor="middle" x="44.5477" y="-87.5" font-family="Helvetica,sans-Serif" font-size="10.00" fill="#000000">init</text>
</g>
<!-- PyQt5&#45;&gt;init -->
<g id="edge1" class="edge">
<title>PyQt5&#45;&gt;init</title><style>.edge>path:hover{stroke-width:8}</style>
<path fill="none" stroke="#000000" d="M44.5477,-143.8314C44.5477,-136.131 44.5477,-126.9743 44.5477,-118.4166"/>
<polygon fill="#c24747" stroke="#000000" points="48.0478,-118.4132 44.5477,-108.4133 41.0478,-118.4133 48.0478,-118.4132"/>
</g>
<!-- main -->
<g id="node4" class="node">
<title>main</title><style>.edge>path:hover{stroke-width:8}</style>
<ellipse fill="#4646a4" stroke="#000000" cx="71.5477" cy="-18" rx="27" ry="18"/>
<text text-anchor="middle" x="71.5477" y="-15.5" font-family="Helvetica,sans-Serif" font-size="10.00" fill="#ffffff">main</text>
</g>
<!-- PyQt5&#45;&gt;main -->
<g id="edge2" class="edge">
<title>PyQt5&#45;&gt;main</title><style>.edge>path:hover{stroke-width:8}</style>
<path fill="none" stroke="#000000" d="M63.2022,-148.8568C79.1821,-135.9069 99.6219,-114.5383 99.5477,-90"/>
<path fill="none" stroke="#000000" d="M99.5477,-90C99.4991,-73.9194 93.3541,-57.108 86.8339,-43.7778"/>
<polygon fill="#c24747" stroke="#000000" points="89.8433,-41.9799 82.1017,-34.7468 83.6429,-45.2289 89.8433,-41.9799"/>
</g>
<!-- PyQt5_QtWidgets -->
<g id="node2" class="node">
<title>PyQt5_QtWidgets</title><style>.edge>path:hover{stroke-width:8}</style>
<ellipse fill="#c24747" stroke="#000000" cx="44.5477" cy="-237.2132" rx="44.5955" ry="21.4286"/>
<text text-anchor="middle" x="44.5477" y="-240.2132" font-family="Helvetica,sans-Serif" font-size="10.00" fill="#ffffff">PyQt5.</text>
<text text-anchor="middle" x="44.5477" y="-229.2132" font-family="Helvetica,sans-Serif" font-size="10.00" fill="#ffffff">QtWidgets</text>
</g>
<!-- PyQt5_QtWidgets&#45;&gt;init -->
<g id="edge3" class="edge">
<title>PyQt5_QtWidgets&#45;&gt;init</title><style>.edge>path:hover{stroke-width:8}</style>
<path fill="none" stroke="#000000" d="M28.1669,-217.3847C20.6047,-206.948 12.4506,-193.5311 8.5477,-180 4.1135,-164.6267 3.9112,-159.3135 8.5477,-144 11.8138,-133.2127 18.0241,-122.6108 24.379,-113.6963"/>
<polygon fill="#c24747" stroke="#000000" points="27.1762,-115.8001 30.4248,-105.7156 21.5964,-111.5732 27.1762,-115.8001"/>
</g>
<!-- PyQt5_QtWidgets&#45;&gt;main -->
<g id="edge4" class="edge">
<title>PyQt5_QtWidgets&#45;&gt;main</title><style>.edge>path:hover{stroke-width:8}</style>
<path fill="none" stroke="#000000" d="M59.5754,-217.2425C66.8827,-206.6628 75.2168,-193.1614 80.5477,-180 95.8953,-142.1086 99.6713,-130.8815 99.5477,-90"/>
</g>
<!-- init&#45;&gt;main -->
<g id="edge5" class="edge">
<title>init&#45;&gt;main</title><style>.edge>path:hover{stroke-width:8}</style>
<path fill="none" stroke="#000000" d="M51.2219,-72.2022C54.2953,-64.0064 58.0093,-54.1024 61.4173,-45.0145"/>
<polygon fill="#49ac49" stroke="#000000" points="64.7162,-46.1853 64.9503,-35.593 58.1619,-43.7274 64.7162,-46.1853"/>
</g>
</g>
</svg>
