<?xml version="1.0" encoding="UTF-8" standalone="no"?>
<!DOCTYPE svg PUBLIC "-//W3C//DTD SVG 1.1//EN"
 "http://www.w3.org/Graphics/SVG/1.1/DTD/svg11.dtd">
<!-- Generated by graphviz version 2.40.1 (20161225.0304)
 -->
<!-- Title: G Pages: 1 -->
<svg width="290pt" height="116pt"
 viewBox="0.00 0.00 289.82 116.00" xmlns="http://www.w3.org/2000/svg" xmlns:xlink="http://www.w3.org/1999/xlink">
<g id="graph0" class="graph" transform="scale(1 1) rotate(0) translate(4 112)">
<title>G</title><style>.edge>path:hover{stroke-width:8}</style>
<polygon fill="#ffffff" stroke="transparent" points="-4,4 -4,-112 285.8169,-112 285.8169,4 -4,4"/>
<!-- pandas -->
<g id="node1" class="node">
<title>pandas</title><style>.edge>path:hover{stroke-width:8}</style>
<ellipse fill="#c04040" stroke="#000000" cx="28.2558" cy="-90" rx="28.0137" ry="18"/>
<text text-anchor="middle" x="28.2558" y="-87.5" font-family="Helvetica,sans-Serif" font-size="10.00" fill="#ffffff">pandas</text>
</g>
<!-- read_data -->
<g id="node2" class="node">
<title>read_data</title><style>.edge>path:hover{stroke-width:8}</style>
<ellipse fill="#75a446" stroke="#000000" cx="125.2558" cy="-18" rx="34.9638" ry="18"/>
<text text-anchor="middle" x="125.2558" y="-15.5" font-family="Helvetica,sans-Serif" font-size="10.00" fill="#000000">read_data</text>
</g>
<!-- pandas&#45;&gt;read_data -->
<g id="edge1" class="edge">
<title>pandas&#45;&gt;read_data</title><style>.edge>path:hover{stroke-width:8}</style>
<path fill="none" stroke="#000000" d="M46.9584,-76.1177C61.2102,-65.539 81.0666,-50.8002 97.2167,-38.8125"/>
<polygon fill="#c04040" stroke="#000000" points="99.3313,-41.6018 105.275,-32.8311 95.1592,-35.981 99.3313,-41.6018"/>
</g>
<!-- transform_coord -->
<g id="node3" class="node">
<title>transform_coord</title><style>.edge>path:hover{stroke-width:8}</style>
<ellipse fill="#53b6b6" stroke="#000000" cx="125.2558" cy="-90" rx="51.4282" ry="18"/>
<text text-anchor="middle" x="125.2558" y="-87.5" font-family="Helvetica,sans-Serif" font-size="10.00" fill="#000000">transform_coord</text>
</g>
<!-- transform_coord&#45;&gt;read_data -->
<g id="edge2" class="edge">
<title>transform_coord&#45;&gt;read_data</title><style>.edge>path:hover{stroke-width:8}</style>
<path fill="none" stroke="#000000" d="M125.2558,-71.8314C125.2558,-64.131 125.2558,-54.9743 125.2558,-46.4166"/>
<polygon fill="#53b6b6" stroke="#000000" points="128.7559,-46.4132 125.2558,-36.4133 121.7559,-46.4133 128.7559,-46.4132"/>
</g>
<!-- user_widgets -->
<g id="node4" class="node">
<title>user_widgets</title><style>.edge>path:hover{stroke-width:8}</style>
<ellipse fill="#8553b6" stroke="#000000" cx="238.2558" cy="-90" rx="43.6222" ry="18"/>
<text text-anchor="middle" x="238.2558" y="-87.5" font-family="Helvetica,sans-Serif" font-size="10.00" fill="#ffffff">user_widgets</text>
</g>
<!-- user_widgets&#45;&gt;read_data -->
<g id="edge3" class="edge">
<title>user_widgets&#45;&gt;read_data</title><style>.edge>path:hover{stroke-width:8}</style>
<path fill="none" stroke="#000000" d="M214.2914,-74.7307C197.2549,-63.8755 174.2314,-49.2057 155.8651,-37.5032"/>
<polygon fill="#8553b6" stroke="#000000" points="157.5839,-34.4484 147.2696,-32.0265 153.8224,-40.3519 157.5839,-34.4484"/>
</g>
</g>
</svg>
