<?xml version="1.0" encoding="UTF-8" standalone="no"?>
<!DOCTYPE svg PUBLIC "-//W3C//DTD SVG 1.1//EN"
 "http://www.w3.org/Graphics/SVG/1.1/DTD/svg11.dtd">
<!-- Generated by graphviz version 2.40.1 (20161225.0304)
 -->
<!-- Title: G Pages: 1 -->
<svg width="385pt" height="194pt"
 viewBox="0.00 0.00 384.58 194.43" xmlns="http://www.w3.org/2000/svg" xmlns:xlink="http://www.w3.org/1999/xlink">
<g id="graph0" class="graph" transform="scale(1 1) rotate(0) translate(4 190.4264)">
<title>G</title><style>.edge>path:hover{stroke-width:8}</style>
<polygon fill="#ffffff" stroke="transparent" points="-4,4 -4,-190.4264 380.5829,-190.4264 380.5829,4 -4,4"/>
<!-- PyQt5 -->
<g id="node1" class="node">
<title>PyQt5</title><style>.edge>path:hover{stroke-width:8}</style>
<ellipse fill="#b65353" stroke="#000000" cx="107.5044" cy="-90" rx="27" ry="18"/>
<text text-anchor="middle" x="107.5044" y="-87.5" font-family="Helvetica,sans-Serif" font-size="10.00" fill="#ffffff">PyQt5</text>
</g>
<!-- user_widgets -->
<g id="node7" class="node">
<title>user_widgets</title><style>.edge>path:hover{stroke-width:8}</style>
<ellipse fill="#663d8f" stroke="#000000" cx="211.5044" cy="-18" rx="43.6222" ry="18"/>
<text text-anchor="middle" x="211.5044" y="-15.5" font-family="Helvetica,sans-Serif" font-size="10.00" fill="#ffffff">user_widgets</text>
</g>
<!-- PyQt5&#45;&gt;user_widgets -->
<g id="edge1" class="edge">
<title>PyQt5&#45;&gt;user_widgets</title><style>.edge>path:hover{stroke-width:8}</style>
<path fill="none" stroke="#000000" d="M126.5796,-76.7941C141.6978,-66.3276 163.1237,-51.4943 180.6716,-39.3458"/>
<polygon fill="#b65353" stroke="#000000" points="182.7002,-42.1983 188.9299,-33.6285 178.7157,-36.4429 182.7002,-42.1983"/>
</g>
<!-- PyQt5_QtCore -->
<g id="node2" class="node">
<title>PyQt5_QtCore</title><style>.edge>path:hover{stroke-width:8}</style>
<ellipse fill="#b65353" stroke="#000000" cx="46.5044" cy="-165.2132" rx="46.5087" ry="18"/>
<text text-anchor="middle" x="46.5044" y="-162.7132" font-family="Helvetica,sans-Serif" font-size="10.00" fill="#ffffff">PyQt5.QtCore</text>
</g>
<!-- PyQt5_QtCore&#45;&gt;user_widgets -->
<g id="edge2" class="edge">
<title>PyQt5_QtCore&#45;&gt;user_widgets</title><style>.edge>path:hover{stroke-width:8}</style>
<path fill="none" stroke="#000000" d="M75.9667,-151.2055C107.9417,-135.2039 155.4136,-108.8093 162.5044,-90"/>
<path fill="none" stroke="#000000" d="M162.5044,-90C168.8922,-73.0554 180.0277,-56.2067 190.0706,-43.0729"/>
<polygon fill="#b65353" stroke="#000000" points="192.9873,-45.0274 196.4515,-35.0149 187.4996,-40.6818 192.9873,-45.0274"/>
</g>
<!-- PyQt5_QtGui -->
<g id="node3" class="node">
<title>PyQt5_QtGui</title><style>.edge>path:hover{stroke-width:8}</style>
<ellipse fill="#b65353" stroke="#000000" cx="153.5044" cy="-165.2132" rx="42.9448" ry="18"/>
<text text-anchor="middle" x="153.5044" y="-162.7132" font-family="Helvetica,sans-Serif" font-size="10.00" fill="#ffffff">PyQt5.QtGui</text>
</g>
<!-- PyQt5_QtGui&#45;&gt;user_widgets -->
<g id="edge3" class="edge">
<title>PyQt5_QtGui&#45;&gt;user_widgets</title><style>.edge>path:hover{stroke-width:8}</style>
<path fill="none" stroke="#000000" d="M153.2693,-147.0115C153.6269,-131.4105 155.4995,-108.5815 162.5044,-90"/>
</g>
<!-- PyQt5_QtWidgets -->
<g id="node4" class="node">
<title>PyQt5_QtWidgets</title><style>.edge>path:hover{stroke-width:8}</style>
<ellipse fill="#b65353" stroke="#000000" cx="259.5044" cy="-165.2132" rx="44.5955" ry="21.4286"/>
<text text-anchor="middle" x="259.5044" y="-168.2132" font-family="Helvetica,sans-Serif" font-size="10.00" fill="#ffffff">PyQt5.</text>
<text text-anchor="middle" x="259.5044" y="-157.2132" font-family="Helvetica,sans-Serif" font-size="10.00" fill="#ffffff">QtWidgets</text>
</g>
<!-- PyQt5_QtWidgets&#45;&gt;user_widgets -->
<g id="edge4" class="edge">
<title>PyQt5_QtWidgets&#45;&gt;user_widgets</title><style>.edge>path:hover{stroke-width:8}</style>
<path fill="none" stroke="#000000" d="M229.0971,-149.6943C198.3913,-132.9403 156.3029,-106.4504 162.5044,-90"/>
</g>
<!-- numpy -->
<g id="node5" class="node">
<title>numpy</title><style>.edge>path:hover{stroke-width:8}</style>
<ellipse fill="#80cc33" stroke="#000000" cx="349.5044" cy="-165.2132" rx="27.1572" ry="18"/>
<text text-anchor="middle" x="349.5044" y="-162.7132" font-family="Helvetica,sans-Serif" font-size="10.00" fill="#000000">numpy</text>
</g>
<!-- pyqtgraph -->
<g id="node6" class="node">
<title>pyqtgraph</title><style>.edge>path:hover{stroke-width:8}</style>
<ellipse fill="#3db8b8" stroke="#000000" cx="260.5044" cy="-90" rx="34.9638" ry="18"/>
<text text-anchor="middle" x="260.5044" y="-87.5" font-family="Helvetica,sans-Serif" font-size="10.00" fill="#000000">pyqtgraph</text>
</g>
<!-- numpy&#45;&gt;pyqtgraph -->
<g id="edge5" class="edge">
<title>numpy&#45;&gt;pyqtgraph</title><style>.edge>path:hover{stroke-width:8}</style>
<path fill="none" stroke="#000000" d="M332.3443,-150.7113C319.3878,-139.762 301.3829,-124.5462 286.6397,-112.0867"/>
<polygon fill="#80cc33" stroke="#000000" points="288.7344,-109.2745 278.8373,-105.493 284.216,-114.621 288.7344,-109.2745"/>
</g>
<!-- numpy&#45;&gt;user_widgets -->
<g id="edge6" class="edge">
<title>numpy&#45;&gt;user_widgets</title><style>.edge>path:hover{stroke-width:8}</style>
<path fill="none" stroke="#000000" d="M344.3646,-147.2303C337.8354,-126.9738 324.8997,-94.0141 304.5044,-72 290.0254,-56.3718 269.9765,-43.9469 252.1999,-34.9747"/>
<polygon fill="#80cc33" stroke="#000000" points="253.6789,-31.8021 243.1526,-30.5988 250.631,-38.1038 253.6789,-31.8021"/>
</g>
<!-- pyqtgraph&#45;&gt;user_widgets -->
<g id="edge7" class="edge">
<title>pyqtgraph&#45;&gt;user_widgets</title><style>.edge>path:hover{stroke-width:8}</style>
<path fill="none" stroke="#000000" d="M248.8921,-72.937C242.9984,-64.277 235.7139,-53.5731 229.1449,-43.9207"/>
<polygon fill="#3db8b8" stroke="#000000" points="231.8935,-41.7386 223.3737,-35.4407 226.1065,-45.677 231.8935,-41.7386"/>
</g>
</g>
</svg>
